<?xml version="1.0" encoding="UTF-8"?>
<svg xmlns="http://www.w3.org/2000/svg" xmlns:xlink="http://www.w3.org/1999/xlink" width="12pt" height="12pt" viewBox="0 0 12 12" version="1.1">
<g id="surface1">
<path style=" stroke:none;fill-rule:nonzero;fill:rgb(0%,41.960784%,100%);fill-opacity:1;" d="M 11.316406 1.96875 C 11.148438 1.800781 10.945312 1.714844 10.714844 1.714844 L 9.855469 1.714844 L 9.855469 1.070312 C 9.855469 0.777344 9.753906 0.523438 9.542969 0.316406 C 9.332031 0.105469 9.082031 0 8.785156 0 L 8.355469 0 C 8.0625 0 7.808594 0.105469 7.601562 0.316406 C 7.390625 0.523438 7.285156 0.777344 7.285156 1.070312 L 7.285156 1.714844 L 4.714844 1.714844 L 4.714844 1.070312 C 4.714844 0.777344 4.609375 0.523438 4.398438 0.316406 C 4.191406 0.105469 3.9375 0 3.644531 0 L 3.214844 0 C 2.917969 0 2.667969 0.105469 2.457031 0.316406 C 2.246094 0.523438 2.144531 0.777344 2.144531 1.070312 L 2.144531 1.714844 L 1.285156 1.714844 C 1.054688 1.714844 0.851562 1.800781 0.683594 1.96875 C 0.511719 2.136719 0.429688 2.339844 0.429688 2.570312 L 0.429688 11.144531 C 0.429688 11.375 0.511719 11.574219 0.683594 11.746094 C 0.851562 11.914062 1.054688 12 1.285156 12 L 10.714844 12 C 10.945312 12 11.148438 11.914062 11.316406 11.746094 C 11.488281 11.574219 11.570312 11.375 11.570312 11.144531 L 11.570312 2.570312 C 11.570312 2.339844 11.488281 2.136719 11.316406 1.96875 Z M 3.214844 11.144531 L 1.285156 11.144531 L 1.285156 9.214844 L 3.214844 9.214844 Z M 3.214844 8.785156 L 1.285156 8.785156 L 1.285156 6.644531 L 3.214844 6.644531 Z M 3.214844 6.214844 L 1.285156 6.214844 L 1.285156 4.285156 L 3.214844 4.285156 Z M 3.0625 3.152344 C 3.019531 3.109375 3 3.058594 3 3 L 3 1.070312 C 3 1.011719 3.019531 0.964844 3.0625 0.921875 C 3.105469 0.878906 3.15625 0.855469 3.214844 0.855469 L 3.644531 0.855469 C 3.699219 0.855469 3.75 0.878906 3.792969 0.921875 C 3.835938 0.964844 3.855469 1.011719 3.855469 1.070312 L 3.855469 3 C 3.855469 3.058594 3.835938 3.109375 3.792969 3.152344 C 3.75 3.191406 3.699219 3.214844 3.644531 3.214844 L 3.214844 3.214844 C 3.15625 3.214844 3.105469 3.191406 3.0625 3.152344 Z M 5.785156 11.144531 L 3.644531 11.144531 L 3.644531 9.214844 L 5.785156 9.214844 Z M 5.785156 8.785156 L 3.644531 8.785156 L 3.644531 6.644531 L 5.785156 6.644531 Z M 5.785156 6.214844 L 3.644531 6.214844 L 3.644531 4.285156 L 5.785156 4.285156 Z M 8.355469 11.144531 L 6.214844 11.144531 L 6.214844 9.214844 L 8.355469 9.214844 Z M 8.355469 8.785156 L 6.214844 8.785156 L 6.214844 6.644531 L 8.355469 6.644531 Z M 8.355469 6.214844 L 6.214844 6.214844 L 6.214844 4.285156 L 8.355469 4.285156 Z M 8.207031 3.152344 C 8.164062 3.109375 8.144531 3.058594 8.144531 3 L 8.144531 1.070312 C 8.144531 1.011719 8.164062 0.964844 8.207031 0.921875 C 8.25 0.878906 8.300781 0.855469 8.355469 0.855469 L 8.785156 0.855469 C 8.84375 0.855469 8.894531 0.878906 8.9375 0.921875 C 8.980469 0.964844 9 1.011719 9 1.070312 L 9 3 C 9 3.058594 8.980469 3.109375 8.9375 3.152344 C 8.894531 3.191406 8.84375 3.214844 8.785156 3.214844 L 8.355469 3.214844 C 8.300781 3.214844 8.25 3.191406 8.207031 3.152344 Z M 10.714844 11.144531 L 8.785156 11.144531 L 8.785156 9.214844 L 10.714844 9.214844 Z M 10.714844 8.785156 L 8.785156 8.785156 L 8.785156 6.644531 L 10.714844 6.644531 Z M 10.714844 6.214844 L 8.785156 6.214844 L 8.785156 4.285156 L 10.714844 4.285156 Z M 10.714844 6.214844 "/>
</g>
</svg>
