<?xml version="1.0" encoding="UTF-8"?>
<svg xmlns="http://www.w3.org/2000/svg" xmlns:xlink="http://www.w3.org/1999/xlink" width="16px" height="16px" viewBox="0 0 16 16" version="1.1">
<g id="surface1">
<path style=" stroke:none;fill-rule:nonzero;fill:rgb(92.54902%,93.72549%,94.509804%);fill-opacity:1;" d="M 15.5 13.5 L 8.5 13.5 C 8.222656 13.5 8 13.277344 8 13 C 8 12.722656 8 3.277344 8 3 C 8 2.722656 8.222656 2.5 8.5 2.5 L 15.5 2.5 C 15.777344 2.5 16 2.722656 16 3 L 16 13 C 16 13.277344 15.777344 13.5 15.5 13.5 Z M 15.5 13.5 "/>
<path style=" stroke:none;fill-rule:nonzero;fill:rgb(21.960784%,55.686275%,23.529412%);fill-opacity:1;" d="M 10.5 5.5 L 8.5 5.5 C 8.222656 5.5 8 5.277344 8 5 C 8 4.722656 8.222656 4.5 8.5 4.5 L 10.5 4.5 C 10.777344 4.5 11 4.722656 11 5 C 11 5.277344 10.777344 5.5 10.5 5.5 Z M 10.5 5.5 "/>
<path style=" stroke:none;fill-rule:nonzero;fill:rgb(21.960784%,55.686275%,23.529412%);fill-opacity:1;" d="M 10.5 7.5 L 8.5 7.5 C 8.222656 7.5 8 7.277344 8 7 C 8 6.722656 8.222656 6.5 8.5 6.5 L 10.5 6.5 C 10.777344 6.5 11 6.722656 11 7 C 11 7.277344 10.777344 7.5 10.5 7.5 Z M 10.5 7.5 "/>
<path style=" stroke:none;fill-rule:nonzero;fill:rgb(21.960784%,55.686275%,23.529412%);fill-opacity:1;" d="M 10.5 9.5 L 8.5 9.5 C 8.222656 9.5 8 9.277344 8 9 C 8 8.722656 8.222656 8.5 8.5 8.5 L 10.5 8.5 C 10.777344 8.5 11 8.722656 11 9 C 11 9.277344 10.777344 9.5 10.5 9.5 Z M 10.5 9.5 "/>
<path style=" stroke:none;fill-rule:nonzero;fill:rgb(21.960784%,55.686275%,23.529412%);fill-opacity:1;" d="M 10.5 11.5 L 8.5 11.5 C 8.222656 11.5 8 11.277344 8 11 C 8 10.722656 8.222656 10.5 8.5 10.5 L 10.5 10.5 C 10.777344 10.5 11 10.722656 11 11 C 11 11.277344 10.777344 11.5 10.5 11.5 Z M 10.5 11.5 "/>
<path style=" stroke:none;fill-rule:nonzero;fill:rgb(21.960784%,55.686275%,23.529412%);fill-opacity:1;" d="M 13.5 5.5 L 12.5 5.5 C 12.222656 5.5 12 5.277344 12 5 C 12 4.722656 12.222656 4.5 12.5 4.5 L 13.5 4.5 C 13.777344 4.5 14 4.722656 14 5 C 14 5.277344 13.777344 5.5 13.5 5.5 Z M 13.5 5.5 "/>
<path style=" stroke:none;fill-rule:nonzero;fill:rgb(21.960784%,55.686275%,23.529412%);fill-opacity:1;" d="M 13.5 7.5 L 12.5 7.5 C 12.222656 7.5 12 7.277344 12 7 C 12 6.722656 12.222656 6.5 12.5 6.5 L 13.5 6.5 C 13.777344 6.5 14 6.722656 14 7 C 14 7.277344 13.777344 7.5 13.5 7.5 Z M 13.5 7.5 "/>
<path style=" stroke:none;fill-rule:nonzero;fill:rgb(21.960784%,55.686275%,23.529412%);fill-opacity:1;" d="M 13.5 9.5 L 12.5 9.5 C 12.222656 9.5 12 9.277344 12 9 C 12 8.722656 12.222656 8.5 12.5 8.5 L 13.5 8.5 C 13.777344 8.5 14 8.722656 14 9 C 14 9.277344 13.777344 9.5 13.5 9.5 Z M 13.5 9.5 "/>
<path style=" stroke:none;fill-rule:nonzero;fill:rgb(21.960784%,55.686275%,23.529412%);fill-opacity:1;" d="M 13.5 11.5 L 12.5 11.5 C 12.222656 11.5 12 11.277344 12 11 C 12 10.722656 12.222656 10.5 12.5 10.5 L 13.5 10.5 C 13.777344 10.5 14 10.722656 14 11 C 14 11.277344 13.777344 11.5 13.5 11.5 Z M 13.5 11.5 "/>
<path style=" stroke:none;fill-rule:nonzero;fill:rgb(18.039216%,49.019608%,19.607843%);fill-opacity:1;" d="M 8.820312 0.617188 C 8.703125 0.519531 8.550781 0.480469 8.40625 0.507812 L 0.40625 2.007812 C 0.171875 2.054688 0 2.257812 0 2.5 L 0 13.5 C 0 13.742188 0.171875 13.949219 0.40625 13.992188 L 8.40625 15.492188 C 8.4375 15.496094 8.46875 15.5 8.5 15.5 C 8.617188 15.5 8.730469 15.460938 8.820312 15.386719 C 8.933594 15.289062 9 15.148438 9 15 L 9 1 C 9 0.851562 8.933594 0.710938 8.820312 0.617188 Z M 8.820312 0.617188 "/>
<path style=" stroke:none;fill-rule:nonzero;fill:rgb(98.039216%,98.039216%,98.039216%);fill-opacity:1;" d="M 6.875 9.671875 L 5.296875 7.863281 L 6.894531 5.808594 C 7.0625 5.589844 7.023438 5.277344 6.808594 5.105469 C 6.589844 4.9375 6.277344 4.976562 6.105469 5.191406 L 4.625 7.097656 L 3.375 5.671875 C 3.191406 5.460938 2.878906 5.441406 2.671875 5.625 C 2.464844 5.804688 2.441406 6.121094 2.625 6.328125 L 4 7.902344 L 2.605469 9.691406 C 2.433594 9.910156 2.476562 10.226562 2.691406 10.394531 C 2.785156 10.464844 2.894531 10.5 3 10.5 C 3.148438 10.5 3.296875 10.433594 3.394531 10.308594 L 4.671875 8.667969 L 6.125 10.328125 C 6.222656 10.441406 6.359375 10.5 6.5 10.5 C 6.617188 10.5 6.734375 10.460938 6.828125 10.375 C 7.035156 10.195312 7.058594 9.878906 6.875 9.671875 Z M 6.875 9.671875 "/>
</g>
</svg>
